{"title":"The.Shadow.of.Naka.2010.DVDRip.XviD.FEEL-FREE","uid":5745892,"size":943964001,"categoryP":"video","categoryS":"movies","magnet":"?xt=urn:btih:878636ae3a66a9251e9b955192f8d2462fa3fd2b&amp;dn=The.Shadow.of.Naka.2010.DVDRip.XviD.FEEL-FREE&amp;tr=udp%3A%2F%2Ftracker.openbittorrent.com%3A80&amp;tr=udp%3A%2F%2Fopen.demonii.com%3A1337&amp;tr=udp%3A%2F%2Ftracker.coppersurfer.tk%3A6969&amp;tr=udp%3A%2F%2Fexodus.desync.com%3A6969","seeders":0,"leechers":0,"uploader":"hiest","files":-1,"time":1281211493,"description":"Genre:Thriller/Drama \nLanguage:Thai\nIMDb:http://www.imdb.com/title/tt1276963/\nSource:DVD\nSubtitles:English/Soft\nGeneral\nComplete name :The.Shadow.of.Naka.2010.DVDRip.XviD.FEEL-FREE\nFormat : AVI\nFormat/Info : Audio Video Interleave\nFile size : 889 MiB\nDuration : 1h 32mn\nOverall bit rate : 1 340 Kbps\nVideo\nFormat : xvid\nCodec ID : xvid\nDuration : 1h 32mn\nBit rate : 1 199 Kbps\nWidth : 652 pixels\nHeight : 352 pixels\nDisplay aspect ratio : 1.852\nFrame rate : 25.000 fps\nResolution : 24 bits\nBits/(Pixel*Frame) : 0.209\nStream size : 796 MiB (89%)\nAudio #1\nID : 1\nFormat : MPEG Audio\nFormat version : Version 1\nFormat profile : Layer 3\nCodec ID : 55\nCodec ID/Hint : MP3\nDuration : 1h 32mn\nBit rate mode : Constant\nBit rate : 128 Kbps\nChannel(s) : 2 channels\nSampling rate : 48.0 KHz\nResolution : 16 bits\nStream size : 84.9 MiB (10%)\nAlignment : Aligned on interleaves\nInterleave, duration : 24 ms (0.60 video frame)\nInterleave, preload duration : 24 ms\nPlot:\nThree criminals disguise themselves as Buddhist monks in order to recover a treasure buried underneath a temple\n...................................................\nScreenshots:\n &lt;a href=&quot;\nhttp://postimg.com/image/20000/19301.jpg&quot; rel=&quot;nofollow&quot; target=&quot;_NEW&quot;&gt;\nhttp://postimg.com/image/20000/19301.jpg&lt;/a&gt;\n &lt;a href=&quot;\nhttp://postimg.com/image/20000/19302.jpg&quot; rel=&quot;nofollow&quot; target=&quot;_NEW&quot;&gt;\nhttp://postimg.com/image/20000/19302.jpg&lt;/a&gt;","torrent":{"xt":"urn:btih:878636ae3a66a9251e9b955192f8d2462fa3fd2b","amp;dn":"The.Shadow.of.Naka.2010.DVDRip.XviD.FEEL-FREE","amp;tr":["udp%3A%2F%2Ftracker.openbittorrent.com%3A80","udp%3A%2F%2Fopen.demonii.com%3A1337","udp%3A%2F%2Ftracker.coppersurfer.tk%3A6969","udp%3A%2F%2Fexodus.desync.com%3A6969"],"infoHash":"878636ae3a66a9251e9b955192f8d2462fa3fd2b","infoHashBuffer":{"type":"Buffer","data":[135,134,54,174,58,102,169,37,30,155,149,81,146,248,210,70,47,163,253,43]},"announce":[],"urlList":[]}}